<?xml version="1.0" encoding="utf-8"?>
<!-- Generator: Adobe Illustrator 22.1.0, SVG Export Plug-In . SVG Version: 6.00 Build 0)  -->
<svg version="1.1" id="Layer_1" xmlns="http://www.w3.org/2000/svg" xmlns:xlink="http://www.w3.org/1999/xlink" x="0px" y="0px"
	 viewBox="0 0 64 76" style="enable-background:new 0 0 64 76;" xml:space="preserve">
<style type="text/css">
	.st0{fill:#81B3D2;}
</style>
<path class="st0" d="M61.1,22.5H61H36.3c13.8-6.9,14.9-11.3,14.4-13.7c-1.2-4-5.7-7-10-5.4c-5.6,2.1-7.1,10.4-8.6,16.4
	C30.1,13.7,28.3,6,23.9,2.1c-1.3-1.1-3.1-2.3-5.8-2c-4,0.4-9.8,5.4-7.5,11c2.3,5.4,9.7,8.8,14.6,11.5H3.2H2.9
	c-1.6,0-2.9,1.3-2.9,2.9v11.3c0,1.6,1.3,2.9,2.9,2.9h0.3V73v2.4V76H61v-0.5V73V39.6h0.1c1.6,0,2.9-1.3,2.9-2.9V25.4
	C64,23.8,62.7,22.5,61.1,22.5z M42.4,5.9c2.1-0.3,5,1.3,5.3,3.2c0.4,2.8-3.4,5.3-5.1,6.4c-2.5,1.7-4.9,2.6-7.3,4.1
	C36.2,15.9,37.8,6.6,42.4,5.9z M19.5,15.9c-2.2-1.5-6.5-4.4-6.4-7.8c0.1-3.6,5.7-6.6,8.8-3.9c3.9,3.4,5.7,11.1,7.1,16.6
	C25.8,19.3,22.7,18,19.5,15.9z M25.5,73H6.1V39.6h19.4L25.5,73L25.5,73z M25.5,36.5H3v-11h22.5V36.5z M35.7,36.5v3V73h-7.2V39.6v-3
	v-11h7.2V36.5z M58,73H38.6V39.6H58V73z M60.9,36.5H38.6v-11h22.3V36.5z"/>
</svg>
