<?xml version="1.0" encoding="utf-8"?>
<!-- Generator: Adobe Illustrator 22.1.0, SVG Export Plug-In . SVG Version: 6.00 Build 0)  -->
<svg version="1.1" id="Layer_1" xmlns="http://www.w3.org/2000/svg" xmlns:xlink="http://www.w3.org/1999/xlink" x="0px" y="0px"
	 viewBox="0 0 1201 625.2" style="enable-background:new 0 0 1201 625.2;" xml:space="preserve">
<style type="text/css">
	.st0{fill:#766458;}
	.st1{fill:#81B3D3;}
	.st2{fill:#FFFFFF;}
</style>
<path class="st0" d="M523.8,56.1L521,61h-2.7l-0.9,1.4h2.8l-6.1,10.4c-1.3,2.2-0.4,4.2,2.1,4.2c1.8,0,3.7-1.3,5.6-3.1
	c0,3.8,5.3,4.5,8.6,0.5h0.7c1.8,0,4.6-1.1,6.2-2.9c-0.2-0.4-0.7-0.9-1.1-1l-0.2,0.2c-1.4,1.5-3,2.2-4.6,2.2l2.8-4.8
	c1.8-3.1,0.1-6.1-2.7-6.1c-2.3,0-4.1,0.9-5.9,3.9l-1.5,2.6l-1.2,2.1l-0.2,0.2c-2.2,2.5-4.3,4.5-5.6,4.5c-0.7,0-1-0.5-0.3-1.6
	l6.5-11.2h2.5l0.7-1.5H524l2.8-4.9H523.8z M531.3,63.9c1,0.1,1.4,1.3,0.4,3l-2.2,3.7h-0.1c-1,0-1.8,0.8-1.8,1.8c0,0.4,0.1,0.7,0.3,1
	v0.1c-1.4,2.4-4.9,2-3.1-1.1l2.3-3.9l1.5-2.4C529.5,64.5,530.6,63.9,531.3,63.9L531.3,63.9z M553.3,56.1l-2.8,4.9h-2.7l-0.9,1.4h2.8
	l-6.2,10.4c-1.3,2.2-0.4,4.2,2.1,4.2c1.2,0,2.5-0.6,3.9-1.6l-0.8,1.3h3l4.6-7.9c4.6-5.8,6.7-5,5.4-2.8l-3.9,6.7
	c-1.3,2.2-0.4,4.2,2.1,4.2c1.8,0,3.8-1.4,5.7-3.2c0.1,1.9,1.7,3.2,4.1,3.2c3.4,0,6.8-2.6,9.3-5.5c-0.2-0.4-0.7-0.9-1.1-1l-0.2,0.2
	c-2.2,2.5-5,4.5-7.1,4.5c-1.9,0-3-1.1-1.6-3.6l0.3-0.5c1.9,0.8,5.6,0.4,7.9-3.4l0.4-0.7c1.6-2.8,0.1-4.8-2.4-4.8
	c-2.4,0-4.4,1.3-5.7,3.4l-2.9,5l-0.2,0.2c-2.2,2.5-4.3,4.5-5.6,4.5c-0.7,0-1-0.5-0.4-1.6l4.4-7.5c1.3-2.3,0.1-3.9-1.6-3.9
	c-1.3,0-2.7,0.7-4.2,2.3l4.8-8.3h-3l-8.4,14.4l-0.2,0.2c-2.2,2.5-4.3,4.5-5.6,4.5c-0.7,0-1-0.5-0.3-1.6l6.5-11.2h2.5l0.9-1.4h-2.5
	l2.8-4.9L553.3,56.1z M574.6,64.3c1-0.1,1.5,0.9,0.5,2.6l-0.4,0.7c-1.4,2.4-3.4,2.4-4.5,2l1.9-3.4C572.8,65,573.8,64.4,574.6,64.3
	L574.6,64.3z M618.9,58.9c-1.7,1.5-1.9,3.2-0.8,4.6l0.3,0.3c-1.3,1.9-3.1,4.4-5.1,6.7l0,0l-0.2,0.2c-1.4,1.5-3,2.2-4.6,2.2l2.8-4.8
	c1.8-3.1,0.1-6.1-2.7-6.1c-2.3,0-4.1,0.9-5.9,3.9l-1.5,2.6l-1.2,2.1l-0.2,0.2c-2.5,2.8-4.6,4.7-7,5.7l6.8-11.4h-1.8
	c0-1.2-1.3-2.9-3.2-2.9c-1.6,0-3.9,1.3-5.2,3.4l-4.2,7.2c-1.3,2.2-0.4,4.2,2.1,4.2c0.8,0,1.9-0.4,2.9-1l-0.8,1.4
	c-4.1,1.2-6.6,2.9-6.6,5.1c0,2.9,4.4,3.5,6.6-0.2l2.3-3.9c2.4-0.7,4.8-2.1,7.2-4.5c0,3.8,5.3,4.6,8.6,0.5h0.7c1.8,0,4.6-1.1,6.2-2.9
	c1.4-1.7,2.6-3.2,5-6.4l0.4,0.5c0.4,0.5,0.5,1.1,0.2,1.7l-3.2,5.5c-1.3,2.2-0.4,4.2,2.1,4.2c1.5,0,3.2-1,4.8-2.4
	c-0.1,1.4,0.9,2.4,2.6,2.4c0.8,0,1.9-0.4,2.9-1l-0.8,1.4c-4.1,1.2-6.6,2.9-6.6,5.1c0,2.9,4.4,3.5,6.6-0.2l2.3-3.9
	c2.5-0.8,4.9-2.2,7.4-4.6c0.1,1.9,1.7,3.2,4.1,3.2c2.5,0,4.9-1.4,7-3.2c-0.1,3.9,5.3,4.7,8.6,0.6h0.7c0.9,0,2.2-0.3,3.4-0.9
	c-0.8,2.1-0.1,3.5,1.7,3.5c1.7,0,3.5-1.5,5-2.9c-0.3,1.6,0.7,2.9,2.6,2.9c2.5,0,5.4-2.6,7.9-5.5l0,0c1.7-2,3.2-4,4.3-5.4
	c-1.2,3.1-0.6,8.7-3.4,8.7c-1,0-1.4-1.1-1.4-1.1l-1.9,1c0,0,0.6,2.4,3.3,2.4c0.3,0,0.6,0,0.8-0.1h0.1c3.1-0.4,6.1-2.8,8.4-5.4
	c-0.2-0.5-0.7-0.9-1.1-1l-0.2,0.2c-1.1,1.2-2.3,2.3-3.6,3.2c1-2.8,0.8-7.2,2.6-11l-2.3-1.2c-1.2,1.7-4,5.6-6.7,8.7l0,0l-0.2,0.2
	c-2.2,2.5-4.3,4.5-5.6,4.5c-0.7,0-1-0.5-0.3-1.6l6.4-11.2h-3l-5.4,9.3c-2.3,2.1-4.1,3.2-4.6,3c-0.8-0.3,0-1.4,0.4-2.1l5.9-10.2h-3
	l-4.7,8.1l-0.2,0.2c-1.4,1.5-3,2.2-4.6,2.2l2.8-4.8c1.8-3.1,0.1-6.1-2.7-6.1c-2.3,0-4.1,0.9-5.9,3.9l-1.5,2.6l-1.2,2.1l-0.2,0.2
	c-2.2,2.5-5,4.5-7.1,4.5c-1.9,0-3-1.1-1.6-3.6l0.3-0.5c1.9,0.8,5.6,0.4,7.9-3.4l0.4-0.7c1.6-2.8,0.1-4.8-2.4-4.8
	c-2.4,0-4.4,1.3-5.7,3.4l-2.9,5l-0.2,0.2c-2.5,2.8-4.6,4.7-7,5.7l6.8-11.4h-1.8c0-1.2-1.3-2.9-3.2-2.9c-1.6,0-3.9,1.3-5.2,3.4
	l-2.9,4.9l0,0l-0.2,0.2c-2.2,2.5-4.3,4.5-5.6,4.5c-0.7,0-1-0.5-0.3-1.6l3-5.2c1-1.8,0.6-2.9-0.4-4l-1.7-2c-0.4-0.5-0.4-1.1,0.2-1.7
	L618.9,58.9z M608.6,63.9c1,0.1,1.5,1.3,0.4,3l-2.2,3.7h-0.1c-1,0-1.8,0.8-1.8,1.8c0,0.4,0.1,0.7,0.3,1v0.1c-1.4,2.4-4.9,2-3.1-1.1
	l2.3-3.9l1.5-2.4C606.8,64.5,607.8,63.9,608.6,63.9L608.6,63.9z M658.8,63.9c1,0.1,1.5,1.3,0.4,3l-2.2,3.7h-0.1
	c-1,0-1.8,0.8-1.8,1.8c0,0.4,0.1,0.7,0.3,1v0.1c-1.4,2.4-4.9,2-3.1-1.1l2.3-3.9l1.5-2.4C656.9,64.5,658,63.9,658.8,63.9L658.8,63.9z
	 M647.1,64.3c1-0.1,1.5,0.9,0.5,2.6l-0.4,0.7c-1.5,2.4-3.4,2.4-4.5,2l1.9-3.4C645.3,65,646.3,64.4,647.1,64.3L647.1,64.3z
	 M594.7,64.5c1,0,1.7,0.9,0.8,2.4l-2.3,4c-1.8,2.9-3.7,4.3-4.9,4.3c-0.7,0-1-0.5-0.3-1.6l4.2-7.3C592.9,65.1,593.9,64.5,594.7,64.5z
	 M633.6,64.5c1,0,1.7,0.9,0.8,2.4l-2.3,4c-1.8,2.9-3.7,4.3-4.9,4.3c-0.7,0-1-0.5-0.3-1.6l4.2-7.3C631.8,65.1,632.8,64.5,633.6,64.5z
	 M588.3,79.4l-1.4,2.4c-0.6,1.1-1.7,0.9-1.7,0.1C585.2,81.2,586,80.3,588.3,79.4L588.3,79.4z M627.2,79.4l-1.4,2.4
	c-0.6,1.1-1.7,0.9-1.7,0.1C624.2,81.2,624.9,80.3,627.2,79.4L627.2,79.4z M472.5,67.8h28.9v1.9h-28.9V67.8z M699.6,67.8h28.9v1.9
	h-28.9V67.8z"/>
<path class="st1" d="M694.4,37.4v7.7h-20.8V0.4h20.8V8h-13.2v10.8h10.5v7.7h-10.5v10.9H694.4z M661.6,0.4h7.6v44.7h-7.6v-22l-3,11.4
	h-7.4l-3-11.4v22h-7.6V0.4h7.6L655,22L661.6,0.4z M629.7,8h-5.5v29.3h5.5V8z M632.7,0.4c2.5,0,4.7,2.1,4.7,4.7v35.3
	c0,2.6-2.2,4.7-4.7,4.7h-11.4c-2.6,0-4.7-2.2-4.7-4.7V5.1c0-2.6,2.1-4.7,4.7-4.7L632.7,0.4z M604.7,28.6l7.7-1.8v13.6
	c0,2.6-2.2,4.7-4.7,4.7h-11.4c-2.6,0-4.7-2.2-4.7-4.7V5.1c0-2.6,2.1-4.7,4.7-4.7h11.4c2.5,0,4.7,2.1,4.7,4.7v9.1l-7.7,1.8V8h-5.5
	v29.3h5.5V28.6z M587.9,37.4v7.7h-18.2V0.4h7.6v37H587.9z M566.5,37.4v7.7h-20.8V0.4h20.8V8h-13.2v10.8h10.5v7.7h-10.5v10.9H566.5z
	 M534.3,0.4h7.7l-1.3,44.7h-14.5l-2-18.5l-2,18.5h-14.5l-1-44.7h7.6l0.6,37h0.8l4.8-37h7.6l4.9,37h0.8L534.3,0.4z"/>
<path class="st2" d="M752.6,214l25.4-74h25.2l25.7,74h-20.2l-3.7-13.4h-28.6l-3.8,13.4H752.6z M788.3,161.8l-7.5,24.5h20.1
	l-7.5-24.5c-0.4-1.2-0.8-2.4-1.2-3.6c-0.3-1.3-0.6-2.5-0.8-3.8c-0.2-0.5-0.3-0.9-0.3-1.3c-0.1-0.5-0.2-0.9-0.2-1.3
	c-0.1,0.4-0.2,0.8-0.3,1.3c-0.1,0.4-0.2,0.8-0.2,1.3c-0.1,0.2-0.1,0.3-0.1,0.5c0,0.1,0,0.2-0.1,0.3c-0.2,1.1-0.5,2.3-0.8,3.4
	C788.9,159.6,788.6,160.7,788.3,161.8z M670.6,214v-74h19.5l27.9,38c0.7,1.1,1.4,2.3,2,3.5c0.7,1.2,1.4,2.4,2,3.6l1.4,3
	c0.5,1,0.9,2,1.4,2.9c-0.1-0.8-0.2-1.6-0.3-2.4c-0.1-0.8-0.2-1.6-0.2-2.4c-0.2-1.6-0.3-3.2-0.3-4.8c-0.1-1.7-0.1-3.3-0.1-5V140h19.4
	v74h-19.4l-28.1-38.2c-0.8-0.9-1.5-2-2.2-3.3s-1.4-2.7-2-4.1c-0.4-1-0.9-1.9-1.4-2.9c-0.4-0.9-0.7-1.9-1.2-2.8
	c0.4,2.4,0.7,4.8,0.9,7.3c0.2,2.5,0.3,5,0.3,7.4V214H670.6z M582.6,159c3.6-6.6,8.5-11.6,14.9-15.1c6.4-3.5,13-5.2,19.9-5.2
	c0.9,0,1.9,0,2.8,0.1c1,0.1,2,0.2,2.9,0.2c2.9,0.4,5.7,1.1,8.5,2.1c2.9,1,5.6,2.3,8.1,3.9c5.5,3.6,9.8,8.3,12.8,14.3
	c3,5.9,4.5,12,4.5,18.5c0,0.8,0,1.6-0.1,2.4c0,0.8-0.1,1.5-0.2,2.3c-0.2,1.7-0.5,3.3-0.9,4.9c-0.4,1.6-0.9,3.1-1.5,4.6
	c-3.3,7.5-8.3,13.4-15.2,17.5c-6.9,4.1-14.1,6.2-21.7,6.2c-0.5,0-1.1,0-1.6-0.1h-1.5c-2.7-0.2-5.3-0.7-7.9-1.4
	c-2.6-0.7-5.1-1.7-7.4-2.9c-6.5-3.4-11.6-8.2-15.3-14.5c-3.7-6.3-5.6-12.9-5.6-19.7c0-1,0-2,0.1-3c0.1-1,0.2-2.1,0.5-3.1
	c0.4-2,0.9-4.1,1.6-6C580.7,162.8,581.6,160.9,582.6,159L582.6,159z M635.4,185.6c0.2-0.8,0.4-1.6,0.6-2.4c0.2-0.9,0.4-1.7,0.5-2.6
	c0.1-0.5,0.1-1.1,0.1-1.6c0.1-0.5,0.1-1,0.1-1.5s0-0.9-0.1-1.4v-1.4c-0.4-3.3-1.4-6.5-3-9.6c-1.6-3.1-3.9-5.5-6.7-7.2
	c-0.8-0.4-1.5-0.7-2.3-1s-1.5-0.6-2.3-0.8s-1.5-0.3-2.3-0.3c-0.8-0.2-1.5-0.2-2.3-0.2c-3.9,0-7.6,1.2-10.9,3.7s-5.7,5.8-7,9.9
	l-0.2,0.5v0.5c-0.2,0.7-0.4,1.5-0.6,2.2s-0.3,1.4-0.5,2.2l-0.2,1.6v2.4c0,0.2,0,0.5,0.1,0.8c0.2,4.1,1.5,8,3.7,11.7
	c2.3,3.6,5.5,6,9.5,7.2l1.4,0.5c0.5,0.1,1,0.2,1.5,0.2l1.4,0.2h1.4c4.1,0,7.8-1.2,11-3.6C631.6,193,634,189.7,635.4,185.6z
	 M553.3,207c-3.6,2.5-7.6,4.2-11.8,5.1c-4.2,0.9-8.6,1.5-12.9,1.7c-1.2,0.1-2.5,0.1-3.7,0.1h-23.8v-74h25.1c1.2,0,2.4,0,3.6,0.1
	c4.2,0.2,8.3,0.8,12.3,1.7c4.1,0.9,7.9,2.7,11.3,5.1c4.3,3,7.7,7,10.1,12c2.4,5,3.8,10.1,4.1,15.3c0.1,0.5,0.1,0.9,0.1,1.4v2.9
	c-0.2,5.5-1.5,10.8-3.9,15.9C561.4,199.4,557.8,203.7,553.3,207L553.3,207z M520.9,197.3c0.2,0,0.5,0,0.7,0.1h0.8
	c0.3,0,0.6,0,0.8,0.1h3.1c0.9-0.1,1.7-0.2,2.4-0.2c2-0.2,4-0.5,5.9-1c1.9-0.5,3.7-1.4,5.2-2.4c2.5-1.8,4.3-4.2,5.5-7.2
	c1.2-3.1,1.9-6.3,1.9-9.6v-0.9c0-0.3,0-0.6-0.1-0.9c-0.2-2.9-0.9-5.8-2.1-8.5c-1.2-2.8-2.9-5-5.1-6.6c-1.6-1.3-3.5-2.2-5.5-2.7
	s-4-0.7-6-0.8h-7.5V197.3z M441,213.9v-74h45.4V156h-25.6v13h24v15.8h-24v12.5h25.5v16.6L441,213.9L441,213.9z M381.6,190.1
	c0.1,0.1,0.1,0.2,0.1,0.2c0.1,0,0.2,0,0.2,0.1c2.1,2.3,4.5,4.5,7.1,6.5c2.6,1.9,5.7,3,9.1,3.1c0.1,0,0.2,0,0.2,0.1h0.3
	c0.1,0,0.2,0,0.2,0.1h1.3c0.4-0.1,0.7-0.2,1-0.2c1.2-0.2,2.4-0.7,3.5-1.4c1.2-0.7,2.1-1.5,2.7-2.6l0.2-0.5l0.2-0.5
	c0.2-0.5,0.3-1,0.3-1.5c0.1-0.5,0.1-0.9,0.1-1.3c0-2.1-0.9-3.8-2.8-5.2c-1.7-1.4-3.7-2.6-5.8-3.4c-0.8-0.3-1.6-0.5-2.4-0.7
	c-0.7-0.2-1.5-0.4-2.2-0.6h-0.2c-0.1-0.1-0.2-0.1-0.2-0.1c-3.8-0.9-7.4-2.4-10.7-4.4c-3.3-2.1-5.6-5.1-6.9-8.9
	c-0.2-0.8-0.5-1.6-0.7-2.4c-0.2-0.9-0.3-1.8-0.3-2.7c0-0.1,0-0.4,0-0.6v-2.8c0.1-0.6,0.2-1.2,0.3-1.9c0.2-1.6,0.6-3.1,1.2-4.6
	c0.5-1.5,1.2-2.9,2.1-4.2c2.5-4.1,5.7-7,9.5-8.8c3.9-1.8,8.1-2.7,12.3-2.7c1,0,2,0.1,3,0.2c1.1,0.1,2.2,0.2,3.3,0.3
	c2.8,0.5,5.6,1.3,8.2,2.3c2.8,1.1,5.3,2.4,7.7,3.8l-6.4,14.3c-2.1-1.5-4.3-2.9-6.6-4.1c-2.3-1.2-4.8-1.7-7.5-1.7h-0.9
	c-1.8,0.2-3.4,1-5,2.4c-1.5,1.3-2.3,2.7-2.3,4.3v0.7c0.1,0.2,0.2,0.5,0.3,0.7c0.2,0.5,0.4,1,0.8,1.5c0.4,0.5,0.8,0.9,1.3,1.3
	c0.9,0.7,2.1,1.4,3.7,2c1.6,0.5,3.3,1.1,5.1,1.6c1.5,0.4,2.9,0.8,4.3,1.2c1.4,0.3,2.6,0.6,3.5,0.9c4.3,1.5,7.6,4.1,9.8,7.8
	c2.2,3.6,3.3,7.4,3.4,11.4v0.6c0,0.5,0,0.9-0.1,1.4v1.3c-0.5,4-1.8,7.9-3.9,11.5s-4.9,6.4-8.5,8.4c-1.3,0.6-2.7,1.2-4.1,1.6
	c-1.4,0.4-2.8,0.7-4.2,1c-1.1,0.2-2.3,0.4-3.5,0.5c-1.1,0.2-2.2,0.2-3.4,0.2h-1.4c-4.6-0.2-9.2-1.2-13.7-3c-4.5-1.9-8.5-4.5-12-7.7
	L381.6,190.1z M723.2,337.2c0-0.3,0.1-0.6,0.2-0.9c0.1-0.3,0.3-0.6,0.5-0.8c0.2-0.2,0.5-0.4,0.8-0.6c0.3-0.1,0.7-0.2,1.1-0.2
	c0.5,0,0.9,0.1,1.3,0.3c0.4,0.2,0.8,0.4,1.1,0.7c0.2,0.3,0.4,0.6,0.6,1c0.1,0.4,0.2,0.8,0.2,1.3c0,0.9-0.2,1.6-0.5,2.4
	c-0.3,0.7-0.7,1.4-1.3,1.9c-0.3,0.3-0.5,0.5-0.8,0.7s-0.6,0.4-0.9,0.5s-0.5,0.3-0.7,0.4c-0.1,0.1-0.2,0.1-0.4,0.2l-1.4-2
	c0.2-0.1,0.5-0.2,0.8-0.4c0.3-0.1,0.6-0.3,0.9-0.5s0.5-0.5,0.7-0.8s0.3-0.6,0.3-1c-0.6,0-1.2-0.2-1.7-0.6
	C723.4,338.5,723.2,338,723.2,337.2 M731,337.2c0-0.3,0.1-0.6,0.2-0.9c0.1-0.3,0.3-0.6,0.5-0.8c0.2-0.2,0.5-0.4,0.8-0.6
	c0.3-0.1,0.7-0.2,1.1-0.2c0.5,0,0.9,0.1,1.3,0.3c0.4,0.2,0.8,0.4,1.1,0.7c0.2,0.3,0.4,0.6,0.6,1c0.1,0.4,0.2,0.8,0.2,1.3
	c0,0.8-0.1,1.6-0.5,2.4c-0.3,0.7-0.7,1.4-1.3,1.9c-0.3,0.3-0.5,0.5-0.8,0.7s-0.6,0.4-0.9,0.5s-0.5,0.3-0.7,0.4
	c-0.1,0.1-0.2,0.1-0.4,0.2l-1.3-2c0.2-0.1,0.5-0.2,0.8-0.4c0.3-0.1,0.6-0.3,0.9-0.5s0.5-0.5,0.7-0.8s0.3-0.6,0.3-1
	c-0.6,0-1.2-0.2-1.7-0.6C731.2,338.5,731,338,731,337.2 M466.4,278.5c0,0.3-0.1,0.6-0.2,0.9s-0.3,0.6-0.5,0.8
	c-0.5,0.5-1.2,0.8-1.9,0.8c-0.4,0-0.9-0.1-1.3-0.3c-0.4-0.2-0.8-0.4-1.1-0.7c-0.3-0.3-0.5-0.7-0.6-1c-0.1-0.4-0.2-0.8-0.2-1.3
	c0-0.9,0.2-1.6,0.5-2.4c0.3-0.7,0.7-1.4,1.3-1.9c0.3-0.3,0.5-0.5,0.8-0.7c0.3-0.2,0.6-0.4,0.9-0.5c0.3-0.1,0.5-0.3,0.7-0.4
	c0.2-0.1,0.3-0.1,0.4-0.2l1.3,2c-0.3,0.1-0.6,0.2-0.8,0.4c-0.3,0.1-0.6,0.3-0.9,0.5c-0.3,0.2-0.5,0.5-0.7,0.8
	c-0.2,0.3-0.3,0.6-0.3,1c0.7,0,1.2,0.2,1.7,0.6C466.2,277.3,466.4,277.8,466.4,278.5 M458.6,278.5c0,0.6-0.2,1.2-0.7,1.7
	c-0.2,0.2-0.5,0.4-0.8,0.6c-0.3,0.1-0.7,0.2-1.1,0.2s-0.9-0.1-1.3-0.3c-0.4-0.2-0.8-0.4-1.1-0.7c-0.3-0.3-0.5-0.7-0.6-1
	c-0.1-0.4-0.2-0.8-0.2-1.3c0-0.9,0.2-1.6,0.5-2.4c0.3-0.7,0.7-1.4,1.3-1.9c0.2-0.2,0.5-0.5,0.8-0.7c0.3-0.2,0.6-0.4,0.9-0.5
	c0.3-0.1,0.5-0.3,0.7-0.4c0.2-0.1,0.3-0.1,0.4-0.2l1.3,2c-0.2,0.1-0.5,0.2-0.8,0.4c-0.3,0.1-0.6,0.3-0.9,0.5
	c-0.3,0.2-0.5,0.5-0.7,0.8c-0.2,0.3-0.3,0.6-0.3,1c0.7,0,1.2,0.2,1.7,0.6C458.3,277.3,458.6,277.8,458.6,278.5 M703.9,335.4h3.8
	l11.8-20.6h-3.8L703.9,335.4z M703.8,336.9c-1.2,0-2.2,1-2.2,2.2s0.9,2.2,2.2,2.2c1.2,0,2.2-0.9,2.2-2.2S705,336.9,703.8,336.9
	 M677.4,331.4l1.1-1.9c4.4-6.1,7.3-4.4,6-2.1l-1.8,3.1C681.6,332.4,678.2,333.8,677.4,331.4 M702.5,334.3c-0.2-0.6-0.9-1.2-1.4-1.3
	l-0.3,0.3c-1.3,1.6-2.9,2.9-4.5,4.1c1.2-3.6,0.9-9.1,3.3-14l-2.8-1.5c-1.6,2.1-5,7.1-8.4,11.1l0,0l0,0l-0.3,0.3
	c-2.7,3.2-5.4,5.7-7,5.7c-0.8,0-1.6-0.8-1.6-2.5v-1.6c2.7,0.3,5.5-1.4,7.2-4.5l1-1.7c3.5-6-2.2-8-6.1-4.5l5.4-9.3h-3.8l-10.8,18.7
	c-0.2-0.2-0.4-0.3-0.7-0.5l-0.3,0.3c-2.7,3.2-6.2,5.7-8.9,5.7c-2.3,0-3.7-1.5-2-4.5l3.9-6.8c2.2-3.7,6-3.1,3.8,0.8l-0.5,0.9h3.1
	l0.5-0.9c2-3.5,0.1-6.1-3-6.1c-3.1,0-5.5,1.6-7.1,4.4l-3.7,6.4c-0.1,0-0.2-0.1-0.2-0.1l-0.3,0.3c-2.7,3.2-5.4,5.7-7,5.7
	c-0.8,0-1.3-0.6-0.4-2.1l8.1-14.1h-3.8l-6.7,11.7c-2.9,2.6-5.1,4.1-5.8,3.7c-0.9-0.4,0-1.8,0.5-2.6l7.4-12.9h-3.8l-7.3,12.7
	c-0.8,0.7-2.4,1.4-3.2,1.9c1.2-3.6,0.9-9.1,3.3-14l-2.8-1.5c-1.6,2.1-10.3,13.7-13.7,17.7c0.3,0.5,0.9,0.9,1.4,1.3
	c2.1-2.5,9.3-11.7,10.7-13.5c-1.5,3.9-0.7,11-4.3,11c-1.3,0-1.8-1.4-1.8-1.4l-2.4,1.2c0,0,0.7,3,4.1,3c0.4,0,0.7,0,1.1-0.1h0.1
	c1.9-0.3,4.6-1.1,6.4-2.4c0,1.5,0.9,2.5,2.5,2.5c2.1,0,4.4-1.9,6.2-3.6c-0.4,2,0.8,3.6,3.2,3.6c2.3,0,5-1.9,7.4-4.4
	c0,2.5,2,4.4,5.1,4.4c3.1,0,6.1-1.7,8.7-4l-2.1,3.7h3.8l4.3-7.5v3c0,3.2,0.6,4.9,3.7,4.9c3.1,0,6.7-3.3,9.8-7l0,0l0,0
	c2.1-2.5,4-5.1,5.4-6.9c-1.5,3.9-0.7,11-4.3,11c-1.3,0-1.8-1.4-1.8-1.4l-2.4,1.2c0,0,0.7,3,4.1,3c0.4,0,0.7,0,1.1-0.1h0.1
	C695.9,340.7,699.7,337.6,702.5,334.3 M587.9,333.2h-0.2c-1.2,0-2.2,1-2.2,2.3c0,0.5,0.1,0.9,0.4,1.3v0.1c-1.8,3-6.1,2.5-3.9-1.5
	l2.9-5l1.8-3.1c2.7-4.5,6.3-2.7,4,1.2L587.9,333.2z M562.5,347.4c-0.8,1.4-2.1,1.2-2.1,0.2s0.9-2.1,3.8-3.2L562.5,347.4z
	 M533.7,333.6c-2.3,3.6-4.5,5.3-6.1,5.3c-0.8,0-1.3-0.6-0.4-2.1l5.3-9.2c2-3.5,6.1-2.6,4.2,0.8L533.7,333.6z M521.7,318.9
	c1.1-1.9,2.4-2.8,3.4-2.8c1.4,0,2.1,0.9,2.1,2.3c0,3.5-4.4,10.8-10.2,9.9h-0.8L521.7,318.9z M614.5,333l-0.3,0.3
	c-2.7,3.2-5.4,5.7-7,5.7c-0.8,0-1.3-0.6-0.4-2.1l5.4-9.6c1.6-2.9,0.1-4.9-2-4.9c-1.6,0-3.3,0.9-5.2,2.8l1.4-2.5h-3.8l-6.1,10.5
	c-0.2-0.1-0.3-0.2-0.5-0.3l-0.3,0.3c-1.7,1.9-3.8,2.8-5.7,2.8l3.6-6.1c2.3-4,0.2-7.7-3.4-7.7c-2.9,0-5.2,1.2-7.3,4.9l-1.9,3.2
	l-1.6,2.8c-0.1-0.1-0.2-0.1-0.3-0.2l-0.3,0.3c-3.1,3.6-5.8,5.9-8.8,7.2l10.4-17.7h-3.8l-6.7,11.6c-2.9,2.7-5.2,4.2-5.9,3.9
	c-0.9-0.4,0-1.8,0.5-2.6l7.4-12.9h-3.8l-6,10.4c-0.1-0.1-0.2-0.1-0.3-0.2l-0.3,0.3c-2.7,3.2-5.4,5.7-7,5.7c-0.8,0-1.3-0.6-0.4-2.1
	l5.4-9.6c1.6-2.9,0.1-4.9-2-4.9c-1.6,0-3.3,0.9-5.2,2.8l1.4-2.5h-3.8l-6,10.4c-0.1-0.1-0.2-0.1-0.4-0.2l-0.3,0.3
	c-2.7,3.2-5.4,5.7-7,5.7c-0.8,0-1.3-0.6-0.4-2.1l6.1-10.7h-2.1c0.1-1.6-1.5-3.8-4-3.8c-2,0-4.9,1.6-6.5,4.4l-3.9,6.7
	c-0.3-0.2-0.6-0.4-0.8-0.5l-0.3,0.3c-2.7,3.2-4.8,5.7-8.6,5.7c-2.6,0-4.1-2.6-1.9-6.4l1.1-1.9c0.7,0.1,1.4,0.2,2.1,0.2
	c4,0,8.6-2.1,11.6-7.3c1.1-1.9,1.5-3.6,1.5-5.1c0-3.4-2.2-5.6-5-5.6c-2.1,0-4.5,1.5-6.2,4.4l-5.9,10.1c-2.2-1.2-3.4-3.3-3.4-5.4
	c0-1.7,0.8-3.5,2.4-4.8l-1.2-2.2c-2.7,1.9-3.9,4.5-3.9,7c0,3,1.7,5.9,4.8,7.5l-1.1,2c-2.7,4.6-1.1,9.7,4.2,9.7
	c4.2,0,6.1-1.9,8.7-4.4c-0.8,2.4,0.4,4.4,3,4.4c1.5,0,3.4-1,5.2-2.5c0.2,1.5,1.3,2.5,3.3,2.5c1.8,0,3.8-1.1,5.7-2.8l-1.4,2.4h3.8
	l5.8-10.1c5.8-7.2,8.4-6.3,6.7-3.5l-4.9,8.5c-1.6,2.8-0.5,5.4,2.6,5.4c2,0,4.3-1.4,6.4-3.4c-0.5,2.1,0.5,3.4,2.4,3.4
	c1.8,0,3.9-1.5,5.6-3l-2.1,3.6c-5.1,1.5-8.3,3.6-8.3,6.5c0,3.6,5.6,4.4,8.3-0.3l2.9-5c3.2-1,6.3-3,9.5-6.2
	c-0.5,5.3,6.5,6.5,10.7,1.1h0.8c1.4,0,3.2-0.5,4.9-1.5l-2.5,4.4h3.8l5.8-10.1c5.8-7.2,8.4-6.3,6.7-3.5l-4.9,8.5
	c-1.6,2.8-0.5,5.4,2.6,5.4c3.1,0,6.7-3.3,9.8-7C615.6,333.8,615,333.2,614.5,333 M733.1,297.4c-2.3,3.7-4.6,5.5-6.2,5.5
	c-0.8,0-1.3-0.6-0.4-2.1l5.3-9.2c2-3.5,6.1-2.6,4.2,0.8l0,0L733.1,297.4z M696.9,297.6c-2.3,3.6-4.5,5.3-6.1,5.3
	c-0.8,0-1.3-0.6-0.4-2.1l5.3-9.2c2-3.5,6.1-2.6,4.2,0.8L696.9,297.6z M657,311.4c-0.8,1.4-2.1,1.2-2.1,0.2s0.9-2.1,3.8-3.2
	L657,311.4z M665,282.9c1.1-1.9,2.4-2.8,3.4-2.8c6,0,1.5,14.4-8.1,12.2h-0.8L665,282.9z M742.7,297l-0.3,0.3c-2.7,3.2-5.4,5.7-7,5.7
	c-0.8,0-1.3-0.6-0.4-2.1l12.8-22.1H744l-5.6,9.6c-0.7-1.1-1.9-2-3.5-2c-2,0-4.9,1.6-6.5,4.4l-3.7,6.4c-0.1,0-0.2-0.1-0.2-0.1
	l-0.3,0.3c-2.7,3.2-5,5.7-6.7,5.7c-0.8,0-1.3-0.6-0.4-2.1l5.5-9.6c1.6-2.9,0.1-4.9-2-4.9c-1.6,0-3.3,0.9-5.2,2.8l1.4-2.5H713
	l-6,10.4c-0.1-0.1-0.2-0.1-0.4-0.2l-0.3,0.3c-2.7,3.2-5.4,5.7-7,5.7c-0.8,0-1.3-0.6-0.4-2.1l6.1-10.7h-2.1c0.1-1.6-1.5-3.8-4-3.8
	c-2,0-4.9,1.6-6.5,4.4l-3.7,6.3l-0.2,0.2c-2.7,3.2-5.8,5.7-7.4,5.7c-0.8,0-1.3-0.6-0.4-2.1l3.8-6.6c1.3-2.3,0.7-3.6-0.5-5.1
	l-2.1-2.5c-0.5-0.7-0.5-1.5,0.2-2.2l-2-2.1c-2.1,1.9-2.3,4.1-1,5.8l0.3,0.4c-1.7,2.4-3.9,5.6-6.4,8.5c0.1,0.1,0.2,0.2,0.3,0.3
	c-3.1,3.6-5.8,5.9-8.7,7.2l4.8-8.2h-3.8l-0.4,0.7c-2,3.5-4.3,6-7.2,6c-2.6,0-3-2.6-0.8-6.4l1.1-1.9c0.7,0.1,1.4,0.2,2.1,0.2
	c13.4,0,19.9-18,8.1-18c-2.1,0-4.5,1.5-6.2,4.4l-5.9,10.1c-2.2-1.2-3.4-3.3-3.4-5.4c0-1.7,0.8-3.5,2.4-4.8l-1.2-2.2
	c-2.7,1.9-3.9,4.5-3.9,7c0,3,1.7,5.9,4.8,7.5l-1.1,2c-2.7,4.6-2.2,9.7,3.2,9.7c1.6,0,2.9-0.5,4.1-1.2l-1,1.7
	c-5.1,1.6-8.3,3.6-8.3,6.5c0,3.6,5.6,4.4,8.3-0.3l2.9-5c3.9-1.2,7.8-3.9,11.9-8.7c-0.1-0.1-0.1-0.2-0.2-0.4c1.7-2,3.1-3.9,6-7.7
	l0.5,0.6c0.5,0.6,0.7,1.4,0.2,2.1l-4,6.9c-1.6,2.8-0.5,5.4,2.6,5.4c1.9,0,4.3-1.2,6.4-3c0,1.7,1.1,3,3.3,3c1.5,0,3.4-1,5.2-2.5
	c0.2,1.5,1.3,2.5,3.3,2.5c1.8,0,3.8-1.1,5.7-2.8l-1.4,2.4h3.8l5.8-10.1c5.8-7.2,8.4-6.3,6.7-3.5l-4.9,8.5c-1.6,2.8-0.5,5.4,2.6,5.4
	c2,0,3.8-1.4,6-3.3c-0.2,1.9,1,3.3,3.3,3.3c1.5,0,3.4-1,5.2-2.5c0.2,1.5,1.3,2.5,3.3,2.5c3.1,0,6.7-3.3,9.8-7
	C743.8,297.8,743.2,297.2,742.7,297 M630.4,291.7c2.2-3.7,6-3.1,3.8,0.8l-0.5,0.9c-1.8,3.1-4.3,3-5.7,2.5L630.4,291.7z M627.4,305.3
	c4.3,0,8.5-3.3,11.7-7c-0.3-0.5-0.9-1.1-1.4-1.3l-0.3,0.3c-2.7,3.2-6.2,5.7-8.9,5.7c-2.3,0-3.7-1.5-2-4.5l0.4-0.7
	c2.4,1,7,0.5,9.8-4.4l0.5-0.9c2-3.5,0.1-6.1-3-6.1c-3,0-5.5,1.6-7.1,4.4l-3.7,6.3c0,0-0.1,0-0.1-0.1l-0.3,0.3
	c-2.7,3.2-5.4,5.7-7,5.7c-0.8,0-1.3-0.6-0.4-2.1l5.4-9.6c1.6-2.9,0.1-4.9-2-4.9c-1.6,0-3.4,0.9-5.3,2.9l6-10.5h-3.8l-10.7,18.5
	c-0.1-0.1-0.3-0.2-0.4-0.3l-0.3,0.3c-2.7,3.2-5.4,5.7-7,5.7c-0.8,0-1.3-0.6-0.4-2.1l8.1-14.1h3.1l1.1-1.8h-3.1l3.6-6.2h-3.8
	l-3.6,6.2h-3.4l-1.1,1.8h3.4l-7.6,13.2c-1.6,2.8-0.5,5.4,2.6,5.4c1.9,0,3.9-1.2,5.9-3l-1.5,2.6h3.8l5.7-10c5.8-7.3,8.4-6.4,6.8-3.6
	l-4.9,8.5c-1.6,2.8-0.5,5.4,2.6,5.4c2.3,0,4.8-1.8,7.3-4.2C622.3,303.5,624.3,305.3,627.4,305.3 M499.9,291.7c2.2-3.7,6-3.1,3.8,0.8
	l-0.5,0.9c-1.8,3.1-4.3,3-5.7,2.5L499.9,291.7z M523,300.9l5.3-9.2c2-3.5,6.1-2.6,4.2,0.8l-2.9,5.2c-2.3,3.6-4.5,5.3-6.1,5.3
	C522.6,302.9,522.1,302.4,523,300.9 M577,291.7c2.2-3.7,6-3.1,3.8,0.8l-0.5,0.9c-1.8,3.1-4.2,3-5.7,2.5L577,291.7z M519.2,301.2
	c-0.6,2.2,0.6,4.1,3.1,4.1c1.5,0,3.4-1,5.2-2.5c0.2,1.5,1.3,2.5,3.3,2.5s4.2-1.4,6.4-3.3c-0.4,2,0.5,3.3,2.4,3.3
	c2.1,0,4.4-1.9,6.2-3.6c-0.4,2,0.8,3.6,3.2,3.6c3.1,0,6.7-3.3,9.8-7c0,0-0.1-0.1-0.1-0.2c2.1-2.4,3.9-5,5.2-6.8
	c-1.5,3.9-0.7,11-4.3,11c-1.3,0-1.8-1.4-1.8-1.4l-2.4,1.2c0,0,0.7,3.1,4.1,3.1c0.4,0,0.7,0,1.1-0.1h0.1c2.8-0.4,5.5-2.1,7.9-4.2
	c0.1,2.5,2,4.3,5.1,4.3c4.3,0,8.5-3.3,11.7-7c-0.3-0.5-0.9-1.1-1.4-1.3l-0.3,0.3c-2.7,3.2-6.2,5.7-8.9,5.7c-2.3,0-3.7-1.5-2-4.5
	l0.4-0.7c2.4,1,7,0.5,9.8-4.4l0.5-0.9c2-3.5,0.1-6.1-3-6.1c-3.1,0-5.5,1.6-7.1,4.4l-3.7,6.3h-0.1l-0.3,0.3c-1.3,1.6-2.9,2.9-4.5,4.1
	c1.2-3.6,0.9-9.1,3.3-14l-2.8-1.5c-1.6,2.1-5,7.1-8.4,11.1l0.1,0.1l-0.1,0.2c-2.7,3.2-5.4,5.7-7,5.7c-0.8,0-1.3-0.6-0.4-2.1
	l8.1-14.1h-3.8l-6.7,11.7c-2.9,2.6-5.1,4.1-5.8,3.7c-0.9-0.4,0-1.8,0.5-2.6l7.4-12.9h-3.8l-6,10.4c-0.1-0.1-0.2-0.1-0.3-0.2
	l-0.3,0.3c-2.7,3.2-5.4,5.7-7,5.7c-0.8,0-1.3-0.6-0.4-2.1l6.1-10.7h-2.1c0.1-1.6-1.5-3.8-4-3.8c-2,0-4.9,1.6-6.5,4.4l-3.8,6.6
	c-0.2-0.1-0.4-0.3-0.6-0.4l-0.3,0.3c-2.7,3.2-5.9,5.7-8.5,5.7c-2.3,0-3.7-1.5-2-4.5l3.9-6.8c2.2-3.7,6-3.1,3.8,0.8l-0.5,0.9h3.1
	l0.5-0.9c2-3.5,0.1-6.1-3-6.1c-3.1,0-5.1,1.6-6.7,4.4l-3.8,6.4c-0.1-0.1-0.2-0.1-0.3-0.2l-0.3,0.3c-2.7,3.2-5.9,5.7-8.6,5.7
	c-2.3,0-3.7-1.5-2-4.5l0.4-0.7c2.4,1,7,0.5,9.8-4.4l0.5-0.9c2-3.5,0.1-6.1-3-6.1s-5.5,1.6-7.1,4.4l-4,6.8c-2.4,4-0.3,7.7,4.1,7.7
	c3.3,0,6-2,8.8-4.6c-0.1,2.6,1.9,4.6,5.1,4.6C513.8,305.3,516.5,303.5,519.2,301.2 M482.3,287.2l3.1-5.2c2.8-4.8,6.3-2,4.4,1.6
	C488.3,286.3,486.2,287.2,482.3,287.2 M478.2,304.5c-2.3,0-4-0.5-5.4-1.3c0.7-0.8,1.3-1.7,1.9-2.7l6.4-11l1,0.1
	C490.9,291.4,487.4,304.5,478.2,304.5 M487.6,289c7.6-2.6,8.2-12.1,0.7-12.1c-2.1,0-4.5,1.5-6.2,4.4l-10.2,17.6
	c-0.4,0.8-0.9,1.5-1.5,2.1c-2.6-3.6-1.9-9,1.8-11.3l-1.5-1.9c-7.9,5-5.6,19.6,7.6,19.6C489.6,307.4,494.8,293.8,487.6,289"/>
<path class="st2" d="M-2,435.1v-62.7l251,24v-24l351.5,57l351.5-57v24l251-24v62.7H-2z"/>
</svg>
